<?xml version="1.0" encoding="UTF-8" standalone="no"?>
<!DOCTYPE svg PUBLIC "-//W3C//DTD SVG 1.1//EN" "http://www.w3.org/Graphics/SVG/1.1/DTD/svg11.dtd">
<svg t="1564056533126" class="icon" viewBox="0 0 1024 1024" version="1.1" xmlns="http://www.w3.org/2000/svg" p-id="11398" xmlns:xlink="http://www.w3.org/1999/xlink" width="200" height="200"><defs><style type="text/css"/></defs><path d="M48.483 192.771l938.052 0c11.305 0 20.48-9.175 20.48-20.48s-9.175-20.48-20.48-20.48l-938.052 0c-11.305 0-20.48 9.175-20.48 20.48s9.175 20.48 20.48 20.48zM47.554 423.267l941.739 0c11.305 0 20.48-9.175 20.48-20.48s-9.175-20.48-20.48-20.48l-941.739 0c-11.305 0-20.48 9.175-20.48 20.48 0 11.318 9.175 20.48 20.48 20.48zM989.307 653.762c11.305 0 20.48-9.175 20.48-20.48s-9.175-20.48-20.48-20.48l-941.753 0c-11.305 0-20.48 9.175-20.48 20.48s9.175 20.48 20.48 20.48l941.753 0zM996.98 843.298l-941.739 0c-11.305 0-20.48 9.175-20.48 20.48s9.175 20.48 20.48 20.48l941.739 0c11.305 0 20.48-9.175 20.48-20.48s-9.175-20.48-20.48-20.48z" p-id="11399" fill="#999999"/></svg>