<?xml version="1.0" standalone="no"?><!DOCTYPE svg PUBLIC "-//W3C//DTD SVG 1.1//EN" "http://www.w3.org/Graphics/SVG/1.1/DTD/svg11.dtd"><svg t="1563974996091" class="icon" viewBox="0 0 1024 1024" version="1.1" xmlns="http://www.w3.org/2000/svg" p-id="14218" width="200" height="200" xmlns:xlink="http://www.w3.org/1999/xlink"><defs><style type="text/css"></style></defs><path d="M181.950464 904.356864c-10.888192 0-21.697536-0.336896-32.377856-0.99328l-48.2304-2.963456 42.43968-22.79936c50.363392-27.060224 90.082304-70.546432 112.79872-123.194368C156.571648 689.539072 99.479552 593.496064 99.479552 489.30816c0-187.336704 188.312576-339.760128 419.76832-339.760128S938.998784 301.971456 938.998784 489.30816c0 187.341824-188.294144 339.760128-419.750912 339.760128-18.069504 0-36.352-0.960512-54.388736-2.854912-42.69568 26.135552-90.272768 46.212096-141.495296 59.675648C276.752384 898.148352 229.175296 904.356864 181.950464 904.356864zM519.248896 177.015808c-216.107008 0-391.93088 140.096512-391.93088 312.292352 0 97.857536 56.060928 188.228608 153.796608 247.955456l9.73312 5.958656-4.037632 10.551296c-18.650112 48.950272-50.323456 91.405312-91.144192 122.9312 40.2944-1.074176 80.775168-6.902784 120.51968-17.350656 50.148352-13.182976 96.55808-33.00352 137.920512-58.91584l4.174848-2.598912 4.891648 0.562176c18.571264 2.132992 37.436416 3.204096 56.076288 3.204096 216.09472 0 391.907328-140.091392 391.907328-312.297472C911.156224 317.11232 735.342592 177.015808 519.248896 177.015808z" p-id="14219" fill="#999999"></path></svg>