<?xml version="1.0" standalone="no"?><!DOCTYPE svg PUBLIC "-//W3C//DTD SVG 1.1//EN" "http://www.w3.org/Graphics/SVG/1.1/DTD/svg11.dtd"><svg t="1563974404765" class="icon" viewBox="0 0 1024 1024" version="1.1" xmlns="http://www.w3.org/2000/svg" p-id="11077" xmlns:xlink="http://www.w3.org/1999/xlink" width="200" height="200"><defs><style type="text/css"></style></defs><path d="M923.421 501.927c-31.19-83.254-86.289-154.373-159.107-205.71-74.638-52.55-162.384-80.464-254.013-80.464s-179.374 27.792-254.013 80.464c-72.94 51.458-127.917 122.576-159.107 205.71l-3.884 10.194 3.884 10.194c31.19 83.254 86.289 154.373 159.107 205.71 74.638 52.55 162.384 80.464 254.013 80.464s179.374-27.792 254.013-80.464c72.94-51.458 127.917-122.576 159.107-205.71l3.884-10.194-3.884-10.194z m-413.12 248.429c-155.102 0-296.126-95.269-354.623-238.114 58.375-142.965 199.521-238.114 354.623-238.114s296.126 95.269 354.623 238.114c-58.497 142.845-199.643 238.114-354.623 238.114z" p-id="11078" fill="#999999"></path><path d="M510.301 357.99c-84.955 0-154.131 69.177-154.131 154.131s69.177 154.131 154.131 154.131 154.131-69.177 154.131-154.131S595.255 357.99 510.301 357.99z m0 250.008c-52.914 0-95.877-42.962-95.877-95.877s42.962-95.877 95.877-95.877 95.877 42.962 95.877 95.877-43.084 95.877-95.877 95.877z" p-id="11079" fill="#999999"></path></svg>