<?xml version="1.0" standalone="no"?><!DOCTYPE svg PUBLIC "-//W3C//DTD SVG 1.1//EN" "http://www.w3.org/Graphics/SVG/1.1/DTD/svg11.dtd"><svg t="1589612073863" class="icon" viewBox="0 0 1024 1024" version="1.1" xmlns="http://www.w3.org/2000/svg" p-id="1287" xmlns:xlink="http://www.w3.org/1999/xlink" width="200" height="200"><defs><style type="text/css"></style></defs><path d="M981.333333 512c0 260.266667-209.066667 469.333333-469.333333 469.333333S42.666667 772.266667 42.666667 512 251.733333 42.666667 512 42.666667s469.333333 209.066667 469.333333 469.333333zM290.133333 597.333333c0 12.8 4.266667 21.333333 12.8 29.866667 17.066667 17.066667 42.666667 17.066667 59.733334 0l149.333333-149.333333 149.333333 149.333333c8.533333 8.533333 17.066667 12.8 29.866667 12.8 12.8 0 21.333333-4.266667 29.866667-12.8 8.533333-8.533333 12.8-17.066667 12.8-29.866667 0-12.8-4.266667-21.333333-12.8-29.866666l-179.2-179.2c-17.066667-17.066667-42.666667-17.066667-59.733334 0L298.666667 567.466667c-4.266667 8.533333-8.533333 17.066667-8.533334 29.866666z" p-id="1288" fill="#3aa4ff"></path></svg>