<?xml version="1.0" encoding="UTF-8" standalone="no"?>
<!DOCTYPE svg PUBLIC "-//W3C//DTD SVG 1.1//EN" "http://www.w3.org/Graphics/SVG/1.1/DTD/svg11.dtd">
<svg t="1572048922272" class="icon" viewBox="0 0 1024 1024" version="1.1" xmlns="http://www.w3.org/2000/svg" p-id="973" xmlns:xlink="http://www.w3.org/1999/xlink" width="200" height="200"><defs><style type="text/css"/></defs><path d="M511.1 512.9l1.8-1.8-1.8 1.8z" fill="#bfbfbf" p-id="974"/><path d="M510.9 510.9l2.2 2.2c-0.7-0.8-1.4-1.5-2.2-2.2z" fill="#bfbfbf" p-id="975"/><path d="M512.9 511.1l-1.8 1.8 1.8-1.8z" fill="#bfbfbf" p-id="976"/><path d="M513.1 513.1l-2.2-2.2c0.7 0.8 1.4 1.5 2.2 2.2z" fill="#bfbfbf" p-id="977"/><path d="M512 64C264.6 64 64 264.6 64 512s200.6 448 448 448 448-200.6 448-448S759.4 64 512 64z m211.1 564.8c-12.5 12.4-32.9 12.4-45.3 0L512 463.1 346.3 628.9c-12.5 12.4-32.9 12.4-45.3 0-12.4-12.5-12.4-32.9 0-45.3l165.7-165.7 21.5-21.5 2.2-2.2c5.7-5.2 13.2-8.3 21.5-8.3 8.4-0.1 16.1 3.1 21.8 8.4l1.8 1.8 21.8 21.8L723 583.6c12.5 12.4 12.5 32.8 0.1 45.2z" fill="#bfbfbf" p-id="978"/></svg>